<?xml version="1.0" encoding="UTF-8"?>
<svg xmlns="http://www.w3.org/2000/svg" viewBox="0 0 14986000 24130000" role="img" aria-labelledby="title description">
  <title id="title">Option-3 canonical topology over fixed reference</title>
  <desc id="description">Development diagnostic showing 29 canonical nodes and 41 wall segments over the preserved Option-3 reference.</desc>
  <rect width="100%" height="100%" fill="#ffffff" />
  <image href="../dist/assets/option-3-reference.png" width="14986000" height="24130000" preserveAspectRatio="none" opacity="0.68" />
  <g fill="none" stroke="#00a7e1" stroke-linecap="square" opacity="0.28">
    <line class="wall-band" data-wall-id="w-option3-central-front-1" x1="13434300" y1="7909500" x2="13434300" y2="14126500" stroke-width="228600" />
    <line class="wall-band" data-wall-id="w-option3-central-front-2" x1="13434300" y1="14126500" x2="13434300" y2="18870000" stroke-width="228600" />
    <line class="wall-band" data-wall-id="w-option3-central-step-2" x1="4788500" y1="14126500" x2="4788500" y2="16050000" stroke-width="114300" />
    <line class="wall-band" data-wall-id="w-option3-central-step-3" x1="4788500" y1="16050000" x2="4788500" y2="18870000" stroke-width="114300" />
    <line class="wall-band" data-wall-id="w-option3-front-partition-left-1" x1="4788500" y1="14126500" x2="8255600" y2="14126500" stroke-width="114300" />
    <line class="wall-band" data-wall-id="w-option3-front-partition-left-3" x1="4788500" y1="18870000" x2="8255600" y2="18870000" stroke-width="228600" />
    <line class="wall-band" data-wall-id="w-option3-front-partition-right-1" x1="8255600" y1="14126500" x2="9893900" y2="14126500" stroke-width="114300" />
    <line class="wall-band" data-wall-id="w-option3-front-partition-right-2" x1="9893900" y1="14126500" x2="13434300" y2="14126500" stroke-width="114300" />
    <line class="wall-band" data-wall-id="w-option3-front-partition-right-3" x1="8255600" y1="18870000" x2="9893900" y2="18870000" stroke-width="228600" />
    <line class="wall-band" data-wall-id="w-option3-front-partition-right-4" x1="9893900" y1="18870000" x2="13434300" y2="18870000" stroke-width="228600" />
    <line class="wall-band" data-wall-id="w-option3-front-wet-split-1" x1="8255600" y1="14126500" x2="8255600" y2="15650500" stroke-width="114300" />
    <line class="wall-band" data-wall-id="w-option3-front-wet-split-2" x1="8255600" y1="15650500" x2="8255600" y2="18870000" stroke-width="114300" />
    <line class="wall-band" data-wall-id="w-option3-front-wet-split-3" x1="9893900" y1="14126500" x2="9893900" y2="15650500" stroke-width="114300" />
    <line class="wall-band" data-wall-id="w-option3-front-wet-split-4" x1="9893900" y1="15650500" x2="9893900" y2="18870000" stroke-width="114300" />
    <line class="wall-band" data-wall-id="w-option3-front-wet-split-5" x1="8255600" y1="15650500" x2="9893900" y2="15650500" stroke-width="114300" />
    <line class="wall-band" data-wall-id="w-option3-kitchen-stair-1" x1="4788500" y1="9547800" x2="4788500" y2="12945500" stroke-width="114300" />
    <line class="wall-band" data-wall-id="w-option3-kitchen-stair-2" x1="4788500" y1="12945500" x2="4788500" y2="14126500" stroke-width="114300" />
    <line class="wall-band" data-wall-id="w-option3-kitchen-stair-3" x1="1565700" y1="9547800" x2="1565700" y2="12945500" stroke-width="228600" />
    <line class="wall-band" data-wall-id="w-option3-kitchen-stair-4" x1="1565700" y1="12945500" x2="1565700" y2="16050000" stroke-width="228600" />
    <line class="wall-band" data-wall-id="w-option3-kitchen-stair-5" x1="1565700" y1="12945500" x2="4788500" y2="12945500" stroke-width="114300" />
    <line class="wall-band" data-wall-id="w-option3-left-outer-1" x1="1565700" y1="3165700" x2="1565700" y2="7909500" stroke-width="228600" />
    <line class="wall-band" data-wall-id="w-option3-puja-kitchen-1" x1="1565700" y1="7909500" x2="1565700" y2="9547800" stroke-width="228600" />
    <line class="wall-band" data-wall-id="w-option3-puja-kitchen-3" x1="1565700" y1="9547800" x2="4788500" y2="9547800" stroke-width="114300" />
    <line class="wall-band" data-wall-id="w-option3-rear-central-1" x1="13434300" y1="3165700" x2="13434300" y2="7909500" stroke-width="228600" />
    <line class="wall-band" data-wall-id="w-option3-rear-partition-left-1" x1="1565700" y1="7909500" x2="5701000" y2="7909500" stroke-width="114300" />
    <line class="wall-band" data-wall-id="w-option3-rear-partition-left-3" x1="1565700" y1="3165700" x2="5701000" y2="3165700" stroke-width="228600" />
    <line class="wall-band" data-wall-id="w-option3-rear-partition-middle-1" x1="5701000" y1="7909500" x2="7495500" y2="7909500" stroke-width="114300" />
    <line class="wall-band" data-wall-id="w-option3-rear-partition-middle-3" x1="5701000" y1="3165700" x2="7495500" y2="3165700" stroke-width="228600" />
    <line class="wall-band" data-wall-id="w-option3-rear-partition-right-1" x1="7495500" y1="7909500" x2="9299000" y2="7909500" stroke-width="114300" />
    <line class="wall-band" data-wall-id="w-option3-rear-partition-right-2" x1="9299000" y1="7909500" x2="13434300" y2="7909500" stroke-width="114300" />
    <line class="wall-band" data-wall-id="w-option3-rear-partition-right-3" x1="7495500" y1="3165700" x2="9299000" y2="3165700" stroke-width="228600" />
    <line class="wall-band" data-wall-id="w-option3-rear-partition-right-4" x1="9299000" y1="3165700" x2="13434300" y2="3165700" stroke-width="228600" />
    <line class="wall-band" data-wall-id="w-option3-rear-wet-split-1" x1="5701000" y1="3165700" x2="5701000" y2="6080350" stroke-width="114300" />
    <line class="wall-band" data-wall-id="w-option3-rear-wet-split-2" x1="5701000" y1="6080350" x2="5701000" y2="7909500" stroke-width="114300" />
    <line class="wall-band" data-wall-id="w-option3-rear-wet-split-3" x1="7495500" y1="3165700" x2="7495500" y2="6080350" stroke-width="114300" />
    <line class="wall-band" data-wall-id="w-option3-rear-wet-split-4" x1="7495500" y1="6080350" x2="7495500" y2="7909500" stroke-width="114300" />
    <line class="wall-band" data-wall-id="w-option3-rear-wet-split-5" x1="9299000" y1="3165700" x2="9299000" y2="6080350" stroke-width="114300" />
    <line class="wall-band" data-wall-id="w-option3-rear-wet-split-6" x1="9299000" y1="6080350" x2="9299000" y2="7909500" stroke-width="114300" />
    <line class="wall-band" data-wall-id="w-option3-rear-wet-split-7" x1="5701000" y1="6080350" x2="7495500" y2="6080350" stroke-width="114300" />
    <line class="wall-band" data-wall-id="w-option3-rear-wet-split-8" x1="7495500" y1="6080350" x2="9299000" y2="6080350" stroke-width="114300" />
    <line class="wall-band" data-wall-id="w-option3-stair-outer-1" x1="1565700" y1="16050000" x2="4788500" y2="16050000" stroke-width="228600" />
  </g>
  <g fill="none" stroke="#e40046" stroke-width="32000" stroke-linecap="round">
    <line class="wall-centre" data-wall-id="w-option3-central-front-1" x1="13434300" y1="7909500" x2="13434300" y2="14126500" />
    <line class="wall-centre" data-wall-id="w-option3-central-front-2" x1="13434300" y1="14126500" x2="13434300" y2="18870000" />
    <line class="wall-centre" data-wall-id="w-option3-central-step-2" x1="4788500" y1="14126500" x2="4788500" y2="16050000" />
    <line class="wall-centre" data-wall-id="w-option3-central-step-3" x1="4788500" y1="16050000" x2="4788500" y2="18870000" />
    <line class="wall-centre" data-wall-id="w-option3-front-partition-left-1" x1="4788500" y1="14126500" x2="8255600" y2="14126500" />
    <line class="wall-centre" data-wall-id="w-option3-front-partition-left-3" x1="4788500" y1="18870000" x2="8255600" y2="18870000" />
    <line class="wall-centre" data-wall-id="w-option3-front-partition-right-1" x1="8255600" y1="14126500" x2="9893900" y2="14126500" />
    <line class="wall-centre" data-wall-id="w-option3-front-partition-right-2" x1="9893900" y1="14126500" x2="13434300" y2="14126500" />
    <line class="wall-centre" data-wall-id="w-option3-front-partition-right-3" x1="8255600" y1="18870000" x2="9893900" y2="18870000" />
    <line class="wall-centre" data-wall-id="w-option3-front-partition-right-4" x1="9893900" y1="18870000" x2="13434300" y2="18870000" />
    <line class="wall-centre" data-wall-id="w-option3-front-wet-split-1" x1="8255600" y1="14126500" x2="8255600" y2="15650500" />
    <line class="wall-centre" data-wall-id="w-option3-front-wet-split-2" x1="8255600" y1="15650500" x2="8255600" y2="18870000" />
    <line class="wall-centre" data-wall-id="w-option3-front-wet-split-3" x1="9893900" y1="14126500" x2="9893900" y2="15650500" />
    <line class="wall-centre" data-wall-id="w-option3-front-wet-split-4" x1="9893900" y1="15650500" x2="9893900" y2="18870000" />
    <line class="wall-centre" data-wall-id="w-option3-front-wet-split-5" x1="8255600" y1="15650500" x2="9893900" y2="15650500" />
    <line class="wall-centre" data-wall-id="w-option3-kitchen-stair-1" x1="4788500" y1="9547800" x2="4788500" y2="12945500" />
    <line class="wall-centre" data-wall-id="w-option3-kitchen-stair-2" x1="4788500" y1="12945500" x2="4788500" y2="14126500" />
    <line class="wall-centre" data-wall-id="w-option3-kitchen-stair-3" x1="1565700" y1="9547800" x2="1565700" y2="12945500" />
    <line class="wall-centre" data-wall-id="w-option3-kitchen-stair-4" x1="1565700" y1="12945500" x2="1565700" y2="16050000" />
    <line class="wall-centre" data-wall-id="w-option3-kitchen-stair-5" x1="1565700" y1="12945500" x2="4788500" y2="12945500" />
    <line class="wall-centre" data-wall-id="w-option3-left-outer-1" x1="1565700" y1="3165700" x2="1565700" y2="7909500" />
    <line class="wall-centre" data-wall-id="w-option3-puja-kitchen-1" x1="1565700" y1="7909500" x2="1565700" y2="9547800" />
    <line class="wall-centre" data-wall-id="w-option3-puja-kitchen-3" x1="1565700" y1="9547800" x2="4788500" y2="9547800" />
    <line class="wall-centre" data-wall-id="w-option3-rear-central-1" x1="13434300" y1="3165700" x2="13434300" y2="7909500" />
    <line class="wall-centre" data-wall-id="w-option3-rear-partition-left-1" x1="1565700" y1="7909500" x2="5701000" y2="7909500" />
    <line class="wall-centre" data-wall-id="w-option3-rear-partition-left-3" x1="1565700" y1="3165700" x2="5701000" y2="3165700" />
    <line class="wall-centre" data-wall-id="w-option3-rear-partition-middle-1" x1="5701000" y1="7909500" x2="7495500" y2="7909500" />
    <line class="wall-centre" data-wall-id="w-option3-rear-partition-middle-3" x1="5701000" y1="3165700" x2="7495500" y2="3165700" />
    <line class="wall-centre" data-wall-id="w-option3-rear-partition-right-1" x1="7495500" y1="7909500" x2="9299000" y2="7909500" />
    <line class="wall-centre" data-wall-id="w-option3-rear-partition-right-2" x1="9299000" y1="7909500" x2="13434300" y2="7909500" />
    <line class="wall-centre" data-wall-id="w-option3-rear-partition-right-3" x1="7495500" y1="3165700" x2="9299000" y2="3165700" />
    <line class="wall-centre" data-wall-id="w-option3-rear-partition-right-4" x1="9299000" y1="3165700" x2="13434300" y2="3165700" />
    <line class="wall-centre" data-wall-id="w-option3-rear-wet-split-1" x1="5701000" y1="3165700" x2="5701000" y2="6080350" />
    <line class="wall-centre" data-wall-id="w-option3-rear-wet-split-2" x1="5701000" y1="6080350" x2="5701000" y2="7909500" />
    <line class="wall-centre" data-wall-id="w-option3-rear-wet-split-3" x1="7495500" y1="3165700" x2="7495500" y2="6080350" />
    <line class="wall-centre" data-wall-id="w-option3-rear-wet-split-4" x1="7495500" y1="6080350" x2="7495500" y2="7909500" />
    <line class="wall-centre" data-wall-id="w-option3-rear-wet-split-5" x1="9299000" y1="3165700" x2="9299000" y2="6080350" />
    <line class="wall-centre" data-wall-id="w-option3-rear-wet-split-6" x1="9299000" y1="6080350" x2="9299000" y2="7909500" />
    <line class="wall-centre" data-wall-id="w-option3-rear-wet-split-7" x1="5701000" y1="6080350" x2="7495500" y2="6080350" />
    <line class="wall-centre" data-wall-id="w-option3-rear-wet-split-8" x1="7495500" y1="6080350" x2="9299000" y2="6080350" />
    <line class="wall-centre" data-wall-id="w-option3-stair-outer-1" x1="1565700" y1="16050000" x2="4788500" y2="16050000" />
  </g>
  <g fill="#ffe100" stroke="#171717" stroke-width="18000">
    <circle class="topology-node" data-node-id="n-option3-central-front-1" cx="4788500" cy="14126500" r="65000" />
    <circle class="topology-node" data-node-id="n-option3-central-front-2" cx="13434300" cy="14126500" r="65000" />
    <circle class="topology-node" data-node-id="n-option3-central-step-1" cx="4788500" cy="9547800" r="65000" />
    <circle class="topology-node" data-node-id="n-option3-front-outer-1" cx="4788500" cy="18870000" r="65000" />
    <circle class="topology-node" data-node-id="n-option3-front-partition-left-1" cx="8255600" cy="14126500" r="65000" />
    <circle class="topology-node" data-node-id="n-option3-front-partition-left-2" cx="8255600" cy="18870000" r="65000" />
    <circle class="topology-node" data-node-id="n-option3-front-partition-right-1" cx="9893900" cy="14126500" r="65000" />
    <circle class="topology-node" data-node-id="n-option3-front-partition-right-2" cx="9893900" cy="18870000" r="65000" />
    <circle class="topology-node" data-node-id="n-option3-front-wet-split-1" cx="8255600" cy="15650500" r="65000" />
    <circle class="topology-node" data-node-id="n-option3-front-wet-split-2" cx="9893900" cy="15650500" r="65000" />
    <circle class="topology-node" data-node-id="n-option3-kitchen-stair-1" cx="1565700" cy="12945500" r="65000" />
    <circle class="topology-node" data-node-id="n-option3-kitchen-stair-2" cx="4788500" cy="12945500" r="65000" />
    <circle class="topology-node" data-node-id="n-option3-left-outer-1" cx="1565700" cy="16050000" r="65000" />
    <circle class="topology-node" data-node-id="n-option3-puja-kitchen-1" cx="1565700" cy="9547800" r="65000" />
    <circle class="topology-node" data-node-id="n-option3-rear-central-1" cx="1565700" cy="7909500" r="65000" />
    <circle class="topology-node" data-node-id="n-option3-rear-central-2" cx="13434300" cy="7909500" r="65000" />
    <circle class="topology-node" data-node-id="n-option3-rear-outer-1" cx="1565700" cy="3165700" r="65000" />
    <circle class="topology-node" data-node-id="n-option3-rear-outer-2" cx="13434300" cy="3165700" r="65000" />
    <circle class="topology-node" data-node-id="n-option3-rear-partition-left-1" cx="5701000" cy="3165700" r="65000" />
    <circle class="topology-node" data-node-id="n-option3-rear-partition-left-2" cx="5701000" cy="7909500" r="65000" />
    <circle class="topology-node" data-node-id="n-option3-rear-partition-middle-1" cx="7495500" cy="3165700" r="65000" />
    <circle class="topology-node" data-node-id="n-option3-rear-partition-middle-2" cx="7495500" cy="7909500" r="65000" />
    <circle class="topology-node" data-node-id="n-option3-rear-partition-right-1" cx="9299000" cy="3165700" r="65000" />
    <circle class="topology-node" data-node-id="n-option3-rear-partition-right-2" cx="9299000" cy="7909500" r="65000" />
    <circle class="topology-node" data-node-id="n-option3-rear-wet-split-1" cx="5701000" cy="6080350" r="65000" />
    <circle class="topology-node" data-node-id="n-option3-rear-wet-split-2" cx="7495500" cy="6080350" r="65000" />
    <circle class="topology-node" data-node-id="n-option3-rear-wet-split-3" cx="9299000" cy="6080350" r="65000" />
    <circle class="topology-node" data-node-id="n-option3-right-outer-1" cx="13434300" cy="18870000" r="65000" />
    <circle class="topology-node" data-node-id="n-option3-stair-outer-1" cx="4788500" cy="16050000" r="65000" />
  </g>
</svg>
